# xmcd
#
# Track frame offsets:
#	150
#	12483
#	27461
#	43949
#	59684
#	74134
#	90057
#	102827
#	118307
#	133322
#	149540
#	164535
#	179458
#	194608
#	208828
#	224581
#	240939
#	258802
#	271737
#	289702
#	306552
#
# Disc length: 4337 seconds
#
# Revision: 1
# Processed by: cddbd v1.5.2PL0 Copyright (c) Steve Scherf et al.
# Submitted via: audiograbber 1.83.01
#
DISCID=5610ef15
DTITLE=Various Artist - Halland's Country Hits Volume 1
DYEAR=1900
DGENRE=
TTITLE0=Joe Diffie - New Way (To Light Up An Old Flame)
TTITLE1=Joe Diffie - Prop Me Up Beside The Jukebox
TTITLE2=Joe Diffie - Ships That Don't Come In
TTITLE3=Holly Dunn - Daddy's Hands
TTITLE4=Holly Dunn - Love Someone Like Me
TTITLE5=Holly Dunn - Only When I Love
TTITLE6=Holly Dunn - You Really Had Me Going
TTITLE7=Skip Ewing - I Don't Have Far To Fall
TTITLE8=Exile - Even Now
TTITLE9=Exile - Nobody's Talking
TTITLE10=Exile - Yet
TTITLE11=Forrester Sisters - (I'd Choose) You Again
TTITLE12=Foster and Lloyd - Crazy Over You
TTITLE13=Radney Foster - Just Call Me Lonesome
TTITLE14=Radney Foster - Nobody Wins
TTITLE15=Vince Gill - Don't Let Our Love Keep Slippin' Away
TTITLE16=Vince Gill - I Still Believe In You
TTITLE17=Vince Gill - Liza Jane
TTITLE18=Vince Gill - Look At Us
TTITLE19=Vince Gill - Never Knew Lonely
TTITLE20=Vince Gill - No Future In The Past
EXTD=
EXTT0=
EXTT1=
EXTT2=
EXTT3=
EXTT4=
EXTT5=
EXTT6=
EXTT7=
EXTT8=
EXTT9=
EXTT10=
EXTT11=
EXTT12=
EXTT13=
EXTT14=
EXTT15=
EXTT16=
EXTT17=
EXTT18=
EXTT19=
EXTT20=
PLAYORDER=
